<?xml version="1.0" encoding="UTF-8"?>
<!-- Generated by Pixelmator Pro 3.6.17 -->
<svg width="900" height="900" viewBox="0 0 900 900" xmlns="http://www.w3.org/2000/svg">
    <path id="path1" fill="#5585ee" stroke="none" d="M 254.999146 808.007935 C 253.927917 807.391479 252.85672 806.774902 251.386566 805.706299 C 245.813324 802.665771 240.713379 799.914429 235.452698 797.515503 C 200.318085 781.49292 165.145599 765.553589 129.993408 749.569641 C 116.96991 743.647766 104.013062 737.775879 92.598206 728.76355 C 57.104004 700.740173 37.838226 664.038513 36.167557 619.210144 C 34.722336 580.43158 35.708282 541.557251 35.879425 502.726379 C 35.943771 488.123352 47.546188 476.768066 62.315308 476.019287 C 76.315887 475.309448 88.54184 485.531738 90.27121 499.882507 C 90.902893 505.12439 90.46701 510.495789 90.506104 515.808167 C 90.638336 533.785034 90.782501 551.761719 90.888763 569.73877 C 90.97821 584.8703 90.158875 600.065186 91.26123 615.12085 C 93.675781 648.099365 108.879456 674.013855 138.051086 690.123474 C 154.471497 699.191406 172.10434 706.072388 189.229156 713.854614 C 227.885101 731.421448 266.576141 748.911133 305.231659 766.478882 C 343.127258 783.701233 380.925842 801.138916 418.907166 818.169556 C 437.766541 826.626099 457.335144 827.9729 476.739868 820.256226 C 490.956787 814.602661 504.755188 807.888916 518.698242 801.555298 C 555.229858 784.961182 591.746399 768.333557 628.254333 751.687378 C 669.152039 733.039612 709.9599 714.192505 750.958069 695.768738 C 767.779602 688.209412 781.891113 677.701965 792.327148 662.383423 C 804.215759 644.932922 808.612427 625.383301 808.629883 604.627136 C 808.680115 544.795471 808.665161 484.963745 808.662476 425.13208 C 808.657288 311.968567 808.635559 198.805054 808.641174 85.641479 C 808.641846 71.574707 809.049561 74.064575 797.255737 74.060425 C 612.093811 73.995361 426.931946 74.006104 241.77002 74.00885 C 193.604736 74.009583 145.439331 74.0896 97.274292 73.985901 C 92.577576 73.975769 90.849396 75.406006 90.926483 80.260254 C 91.153748 94.573669 90.92453 108.893921 90.918762 123.211548 C 90.909058 147.362061 90.941345 171.512573 90.942352 195.663086 C 90.943909 233.293213 90.956543 270.923401 90.911072 308.553528 C 90.901428 316.544739 90.637695 324.535339 90.535645 332.526794 C 90.43161 340.673523 90.957825 348.874939 90.199127 356.957642 C 88.118622 379.12146 63.238861 386.001831 48.586624 377.073669 C 38.827347 371.126953 35.598984 361.812744 35.6371 350.64801 C 35.810654 299.81665 35.720322 248.984375 35.733704 198.152466 C 35.746674 148.820557 35.783447 99.488647 35.776352 50.156738 C 35.775192 42.087891 37.603439 34.705444 42.867172 28.336182 C 49.578323 20.215332 58.289856 17.629395 68.561005 17.641113 C 181.058075 17.769531 293.555328 17.732544 406.052551 17.734985 C 547.882385 17.738281 689.712158 17.728027 831.541992 17.74707 C 850.108521 17.749512 861.77832 28.093628 863.384521 46.475464 C 864.106445 54.734863 863.880249 63.088623 863.864746 71.399109 C 863.772095 120.878357 863.553467 170.357422 863.50647 219.83667 C 863.483887 243.648438 863.822754 267.460327 863.859253 291.272339 C 863.921509 331.756409 863.872437 372.240601 863.872925 412.724731 C 863.873901 478.056458 864.038696 543.388977 863.729248 608.719177 C 863.674438 620.304688 862.736938 632.111023 860.339722 643.419556 C 851.926636 683.106445 830.517334 714.41925 796.068298 735.890137 C 782.734253 744.200867 767.919312 750.197388 753.584839 756.828247 C 720.493164 772.135925 687.299194 787.222961 654.116394 802.33313 C 605.018372 824.690674 555.917908 847.043091 506.772766 869.296753 C 471.80426 885.130981 436.061279 887.171875 400.635742 871.988647 C 359.947937 854.550293 319.919678 835.576538 279.52182 817.454834 C 271.541016 813.874756 263.183105 811.135132 254.999146 808.007935 Z"/>
    <path id="path2" fill="#0dc0c5" stroke="none" d="M 408.24823 435.241821 C 419.92865 397.671814 431.495483 360.486389 443.069824 323.303345 C 449.896057 301.373474 456.778259 279.460693 463.515625 257.50354 C 464.4422 254.484131 465.871887 253.31189 469.135071 253.352783 C 490.112427 253.615723 511.092407 253.67041 532.07135 253.814819 C 533.529419 253.824829 534.986389 254.00708 537.310608 254.170044 C 535.475159 260.323547 533.854126 265.997742 532.092102 271.627808 C 515.885132 323.411255 499.623047 375.17749 483.437561 426.967712 C 464.816528 486.550781 446.258484 546.153625 427.669434 605.746765 C 423.902771 617.821716 420.033752 629.865784 416.398743 641.980164 C 415.354797 645.459229 413.876221 647.060181 409.848816 647.017944 C 389.358704 646.803284 368.864929 646.946106 348.372437 646.96344 C 346.744568 646.964783 345.116699 646.963623 342.33374 646.963623 C 364.451904 575.928955 386.2948 505.778137 408.24823 435.241821 Z"/>
    <path id="path3" fill="#0ec1c6" stroke="none" d="M 165.383179 501.55188 C 155.504211 494.437378 145.497742 488.038757 136.431396 480.508179 C 116.900482 464.285706 118.649689 427.668213 139.414612 412.612915 C 165.698364 393.556274 192.129272 374.702698 218.481537 355.740479 C 237.922913 341.751099 257.20871 327.540894 276.812286 313.783081 C 290.797333 303.968323 310.000793 306.78595 318.944397 319.386536 C 329.35791 334.057983 326.612732 353.987488 312.279358 364.303223 C 276.195587 390.272827 239.946625 416.012756 203.782227 441.870361 C 201.388947 443.581543 199.149658 445.508057 196.248505 447.800964 C 205.914368 454.871826 214.960815 461.547424 224.067078 468.140381 C 253.865417 489.714417 283.81546 511.082092 313.437988 532.894592 C 326.55481 542.553284 328.944092 562.220215 319.441528 575.512878 C 310.281555 588.326294 291.884552 591.955017 278.479309 582.668274 C 254.810364 566.271118 231.517029 549.330444 208.120636 532.541687 C 193.921692 522.352722 179.824646 512.021729 165.383179 501.55188 Z"/>
    <path id="path4" fill="#0ec1c6" stroke="none" d="M 681.348999 449.428589 C 684.262878 446.22168 680.895691 445.603088 679.554626 444.638916 C 664.69281 433.954712 649.720947 423.423828 634.821716 412.791504 C 611.661499 396.263794 588.440369 379.819031 565.431946 363.082214 C 553.360107 354.300964 550.615906 334.485107 559.172852 321.497437 C 568.042175 308.035889 585.83313 303.119446 599.067139 311.746643 C 615.634216 322.546753 631.524841 334.392822 647.604248 345.931152 C 678.426392 368.048584 709.30542 390.090515 739.912659 412.502686 C 762.723694 429.205994 762.493164 466.247498 739.544739 483.02002 C 714.824219 501.087646 689.793884 518.730896 664.93335 536.607483 C 644.39679 551.374878 623.921448 566.227478 603.398254 581.013611 C 588.605164 591.671448 569.5849 589.409119 559.737427 575.869263 C 549.877258 562.311951 553.143799 542.030151 567.30249 531.743225 C 594.364746 512.081482 621.639587 492.712585 648.790894 473.173035 C 659.598938 465.394958 670.313416 457.486816 681.348999 449.428589 Z"/>
</svg>
